<?xml version="1.0" encoding="UTF-8" standalone="no"?>
<!DOCTYPE svg PUBLIC "-//W3C//DTD SVG 1.1//EN" "http://www.w3.org/Graphics/SVG/1.1/DTD/svg11.dtd">
<svg width="100%" height="100%" viewBox="0 0 1146 796" version="1.1" xmlns="http://www.w3.org/2000/svg" xmlns:xlink="http://www.w3.org/1999/xlink" xml:space="preserve" xmlns:serif="http://www.serif.com/" style="fill-rule:evenodd;clip-rule:evenodd;stroke-linejoin:round;stroke-miterlimit:2;">
    <g transform="matrix(0.75,0,0,0.75,0,0)">
        <g transform="matrix(1,0,0,1,-2919.96,-483.406)">
            <path d="M4033.72,779.225C4031.81,776.628 4029.53,774.364 4026.89,772.141L4027.4,753.606L4021.42,741.02C4024.08,736.027 4026.48,730.892 4028.48,725.598C4029.21,723.898 4029.74,722.12 4030.06,720.302C4032.7,705.626 4022.68,695.226 4011.06,688.243C4003.79,683.872 3996.06,680.355 3988.21,677.161C3979.52,653.555 3961.47,632.782 3942.41,616.354C3951.32,602.106 3954.06,584.025 3955.14,567.64L3956.51,546.894L3935.05,558.993C3933,546.869 3926.2,537.096 3918.92,525.74L3906.94,507.055L3898.97,527.767C3887,558.86 3828.11,576.94 3799,586.179C3761.22,598.167 3731.56,622.924 3717.78,660.665C3704.88,695.992 3708.49,736.124 3722.73,770.47C3733.18,795.65 3749.75,818.797 3771.35,835.572C3775.34,840.407 3779.21,845.405 3782.45,850.769C3788.74,861.164 3789.73,868.703 3784.49,879.033C3767.32,887.992 3750.36,897.357 3733.99,907.711C3727.78,911.639 3721.61,915.623 3715.54,919.77C3710.34,923.328 3705.16,926.973 3700.28,930.971C3666.7,932.873 3635.5,949.152 3612.39,973.307C3590.84,995.843 3575.66,1026.14 3574.49,1057.63C3538.54,1089.38 3511.81,1130.31 3515.93,1180.09C3495.36,1223.48 3466.72,1290.92 3473.77,1338.52L3474.98,1346.75L3481.43,1352.1L3485.12,1355.13L3486.98,1356.66C3569.4,1424.25 3663.14,1475.83 3763.53,1511.39C3766.48,1513.64 3769.48,1515.82 3772.6,1517.84C3777.15,1520.79 3781.9,1523.38 3786.69,1525.9C3794.12,1529.81 3801.59,1533.62 3809.03,1537.51C3824.39,1545.55 3844.8,1547.76 3857.75,1534.43C3869.97,1530.57 3879.85,1520.07 3883.13,1507.7C3887.63,1504.14 3891.23,1499.53 3893.79,1494.39C3896.25,1489.45 3897.78,1483.89 3898.13,1478.34C3902.25,1472.96 3904.64,1466.32 3904.9,1459.53C3905.42,1446.43 3898.13,1435.12 3886.77,1429.2C3889,1423.93 3890.65,1418.39 3891.47,1412.75C3891.76,1410.73 3891.93,1408.67 3891.98,1406.61C3911.07,1408.14 3931.37,1417.61 3947.55,1426.13C3976.3,1441.27 4003.39,1459.36 4031.84,1475.06C4096.4,1510.71 4162.79,1531.77 4230.23,1489.4L4247.64,1478.46L4237.68,1460.46C4234.98,1455.59 4232.89,1450.3 4230.79,1445.15C4227.95,1438.21 4225.18,1431.24 4222.12,1424.4C4215.91,1410.53 4207.19,1393.71 4193.76,1385.29L4178.02,1298L4178.09,1297.79L4177.08,1292.74L4162.1,1209.69L4161.1,1212.64C4158.23,1198.24 4155.36,1183.83 4152.49,1169.43C4158.32,1157.1 4162.9,1144.22 4166.89,1131.19C4172.25,1113.67 4176.5,1095.83 4180.18,1077.89C4188.95,1035.18 4194.68,991.914 4199.23,948.565C4325.39,916.428 4402.21,827.179 4443.35,706.035L4447.07,695.087L4440.07,685.886C4391.38,621.877 4330.46,571.256 4257.89,536.451C4240.65,524.916 4222.52,512.063 4208.74,496.488L4205.11,492.393L4199.98,490.499C4190.25,486.901 4180.04,484.677 4169.7,483.833L4169.31,483.801C4148.5,482.102 4127.6,486.02 4108.03,492.985C4088.87,499.044 4070.91,508.567 4054.28,519.755C4052.81,520.343 4051.37,520.975 4049.93,521.637L4047.34,522.833L4045.14,524.66C4035.95,532.294 4031.53,544.515 4032.52,556.283C4028.21,578.611 4029.21,601.42 4039.5,622.075L4043.56,630.224L4052.22,633.046C4063.82,636.829 4076.81,639.123 4088.68,635.239C4097.4,634.94 4106.12,633.371 4114.04,629.64C4122.41,628.992 4130.8,626.568 4137.13,620.957C4150.44,618.155 4160.24,610.119 4165.84,598.736C4178.34,612.51 4190.39,627.302 4199.41,643.336C4206.35,659.98 4214.64,676.866 4225.1,691.861C4218.43,692.608 4211.8,693.704 4205.27,695.25L4203.54,695.66C4173.6,703.097 4149.31,719.854 4138.66,748.856C4115.82,748.344 4092.88,751.223 4071.36,759.104C4059.69,763.379 4045.09,771.159 4033.72,779.225ZM3990.13,845.239C3981.5,858.547 3971.01,869.733 3955.57,874.353C3955.91,871.93 3956.29,869.512 3956.78,867.118C3959.45,854.135 3964.47,848.685 3977.84,847.04C3981.91,846.539 3986.04,845.985 3990.13,845.239ZM3675.32,1293.65C3690.7,1277.94 3705.44,1260.37 3716.41,1241.26C3735.54,1258.33 3757.72,1275.31 3780.92,1285.11C3797.35,1304.23 3813.67,1324.48 3826.52,1346.17C3831.7,1354.91 3840.47,1371.21 3840.06,1381.87C3836.82,1391.27 3830.8,1398.15 3822.25,1403.21C3814.45,1406.15 3806.06,1409.48 3798.7,1413.74C3784.24,1404.96 3770.18,1395.47 3756.73,1385.21C3745.13,1376.34 3733.82,1366.86 3723.6,1356.4C3709.85,1333.8 3693.87,1312.53 3675.32,1293.65Z" style="fill:rgb(4,29,48);"/>
        </g>
        <g transform="matrix(1,0,0,1,-2919.96,-483.406)">
            <path d="M3791.76,959.601C3775.02,979.37 3730.87,1081.21 3671.72,1084.32C3678.01,1123.61 3629.26,1079.9 3617.79,1067.08C3645.77,1110.91 3661.17,1133.08 3706.08,1109.31C3715.43,1135.17 3696.06,1160.22 3676.77,1180.57C3660.01,1195.96 3639.17,1210.15 3617.06,1218.22L3578.81,1245.94L3623.31,1249.06C3626.41,1306.37 3658.16,1357.9 3718.56,1403.64C3689.7,1374.55 3663.09,1333.37 3655.71,1301.37C3672.34,1319.14 3687.82,1339.57 3702.16,1362.66C3705.94,1372.22 3736.65,1399.7 3794.88,1435.84C3791.31,1440.19 3789.17,1445.28 3788.45,1451.12C3792.3,1445.68 3799.8,1439.83 3810.95,1433.54C3829.18,1424.41 3844.77,1425.45 3861.43,1393.89C3873.43,1393.92 3873.12,1413.23 3861.05,1431.22L3859.8,1440.84C3850.1,1435.2 3845.25,1432.38 3845.25,1432.38L3860.42,1436.07L3859.8,1440.84L3875.94,1448.09C3888.96,1453.95 3882.24,1469.12 3873.87,1468.64C3880.53,1474.98 3873.81,1494.68 3860.95,1493.24C3866.95,1502.93 3854.99,1516.82 3844.66,1513.86C3843.69,1522.85 3832.31,1525.16 3819.1,1518.25C3788.6,1502.31 3786.95,1502.25 3772.55,1490.87L3775.09,1490.04C3788.23,1502.46 3817.65,1516.35 3844.56,1509.42C3814.95,1508.84 3802.18,1490.86 3790.91,1484.37L3790.88,1484.35C3794.69,1482.73 3797.14,1481.3 3798.27,1479.94C3770.49,1482.1 3743.92,1466.23 3684.52,1423.47C3717.93,1431.22 3729.15,1438.63 3752.2,1454.56C3727.75,1412.41 3626.16,1400.85 3542.97,1308.57C3573.77,1344.88 3559.82,1347.44 3564.41,1351.21C3517.82,1324.4 3511.25,1318.23 3514.86,1270.31L3498.9,1338.33C3497.68,1337.33 3496.47,1336.34 3495.27,1335.33C3490.6,1303.68 3504.91,1253.19 3538.2,1183.87C3532.87,1144.96 3549.88,1108.2 3589.24,1073.6C3594.69,1087.33 3602.79,1098.05 3613.55,1105.77C3603.54,1090.52 3597.84,1076.03 3596.45,1062.29C3599.5,983.637 3696.01,925.275 3743.66,975.116C3737.98,964.147 3729.42,953.208 3715.61,948.015C3730.94,934.105 3759.12,916.566 3800.14,895.397C3812.23,876.265 3811.6,860.855 3804.72,846.321C3812.89,842.396 3815.13,848.38 3814.37,852.555C3826.16,845.988 3829.99,827.847 3833.06,815.136C3835.78,818.735 3837.31,822.474 3837.64,828.4C3854.18,803.437 3839.39,794.706 3834.72,769.98C3838.02,775.483 3842.7,779.787 3848.74,781.776C3864.39,786.935 3892.33,803.832 3887.95,771.538C3880.67,793.948 3862.27,780.541 3852.51,773.839C3814.78,747.925 3843.86,715.388 3854.53,727.744C3862.44,736.903 3848.02,759.745 3863.94,758.49C3871.72,758.325 3874.02,765.748 3871.75,768.716C3878.2,767.836 3878.14,757.421 3876.22,754.886C3870.02,746.696 3859.12,752.548 3865.11,739.314C3866.13,737.051 3864.6,726.829 3859.95,720.571C3878.13,723.887 3888.24,780.88 3890.63,751.408C3892.13,731.58 3883.75,697.303 3877.32,681.991C3877.32,681.991 3880.95,681.71 3885.15,683.047C3881.3,663.316 3868.63,651.735 3852.24,646.834C3841.23,647.167 3823.04,650.261 3809.46,662.003C3809.46,662.003 3808.61,664.248 3813.49,651.365C3791.12,664.471 3778.6,668.082 3769.35,679.569C3771.88,670.93 3775.08,664.231 3778.93,659.473C3757.21,672.527 3740.4,693.115 3738.72,718.339C3722.63,651.988 3794.11,618.565 3813.93,612.73C3813.93,612.73 3803.27,623.492 3799.18,634.21C3840.27,591.085 3896.42,598.039 3910.86,559.024C3911.3,567.07 3905.49,593.954 3898.17,604.805C3905.86,602.267 3912.11,600.759 3920.4,596.301C3912.41,616.427 3879.49,629.716 3850.06,641.693C3873.12,637.507 3896.38,638.544 3914.08,621.417C3938.29,639.558 3961.84,664.49 3970.66,693.62C3998.45,704.256 4011.02,712.162 4008.37,717.334C4005.78,724.325 4001.95,731.889 3996.89,740.029L4004.3,755.644L4004.14,755.939L4004.32,760.581L4005.47,783.359C4033.42,805.324 3996.42,825.703 3971.48,816.957C3948.62,808.945 3923.65,787.444 3894.19,790.364C3922.5,797.242 3943.21,803.969 3938.67,822.433L3951.6,824.589L3925.9,847.162C3906.38,863.994 3948.12,850.161 3913.97,899.402C3902.28,880.507 3890.65,855.008 3879.11,822.908C3892.56,882.489 3892.63,906.219 3903.93,928.061C3903.97,928.223 3829.9,940.839 3820.23,941.449C3864.71,953.034 3942.97,937.72 3927.6,1024.62C3946.34,1012.13 3940.03,1016.33 3940.03,1016.33C3937.83,1031.15 3946.36,1052.02 3925,1072.35C3947.19,1071.44 3952.91,1068.58 3964.12,1054.4C3965.11,1057.93 3966.06,1061.53 3966.99,1065.21C3981.39,1122.26 3871.07,1136.72 3834.11,1138.98C3792.71,1134.04 3767.32,1117.95 3757.94,1090.71C3745,1053.11 3778.05,994.753 3791.76,959.601ZM3963.63,917.276C3982.71,913.831 3998.13,904.781 4047.32,932.84C4024.42,905.09 3995.42,894.376 3960.31,900.698C3998.1,892.889 4034.43,829.888 4064.09,800.709C4056.32,803.402 4045.92,810.306 4032.9,821.421C4055.45,767.847 4152.31,763.708 4204.95,777.284C4197.69,770.143 4182.44,765.09 4159.19,762.127C4178.48,720.491 4220.36,711.852 4248.77,719.911C4296.35,733.409 4319.51,719.658 4334.79,714.445C4310.76,709.249 4289.81,691.032 4271.94,659.794L4268.03,672.285C4252.24,662.629 4234.42,638.687 4214.55,600.458L4276.23,641.837C4259.7,626.205 4234.84,606.556 4201.67,582.894L4195.23,541.708L4187.62,551.468C4186.39,543.141 4182.25,534.681 4175.19,526.094L4173.58,537.541L4164.4,541.262L4149.91,561.633L4149.91,561.661L4139.26,576.702C4143.97,574.036 4146.33,572.704 4146.33,572.704L4147.04,587.638C4144.15,594.667 4138.89,598.772 4131.26,599.951C4127.21,591.342 4123.73,582.605 4127.79,560.308C4123.35,563.431 4123.09,564.527 4121.49,568.452C4117.23,578.943 4116.32,591.713 4121.63,605.475C4118.94,607.258 4114.64,608.136 4108.75,608.096C4103.98,596.298 4101.98,584.903 4101.51,567.582C4098.32,572.48 4093.76,580.101 4094.23,585.815C4094.96,594.609 4097.46,603.243 4100.87,611.499C4096.25,612.958 4090.73,613.642 4084.33,613.554C4083.8,613.841 4083.25,614.097 4082.66,614.32C4076.94,599.479 4071.98,586.45 4077.72,562.248C4076.12,566.146 4068.56,575.234 4068.01,579.464C4066.7,589.351 4070.18,602.128 4074.16,615.492L4074.44,615.501C4070.1,615.37 4064.93,614.331 4058.95,612.382C4051.27,596.939 4049.81,578.459 4054.57,556.941C4054.59,557.003 4068.6,540.509 4081.32,551.968C4086.95,545.105 4106.45,543.082 4113.04,550.185C4111.1,541.549 4093.63,540.986 4088.07,542.031C4087.05,541.592 4086.09,541.184 4085.18,540.808C4111.17,523.337 4136.99,508.348 4168.86,510.879C4195.99,529.018 4243.85,558.195 4315.07,609.242C4320.35,616.553 4328.03,635.941 4338.1,667.408L4341.22,641.644C4379.82,663.211 4372.94,671.723 4334.2,704.103C4343.38,701.552 4354.31,694.004 4366.99,681.461C4407.97,721.308 4331.24,743.131 4296.72,734.939C4332.93,759.961 4371.18,751.372 4411.49,709.176C4395.41,758.789 4352.73,795.222 4283.45,818.477C4297.42,821.239 4315.38,817.596 4337.32,807.546C4310.75,860.461 4262.35,881.801 4192.1,871.565L4220.21,831.749C4210.08,843.919 4188.74,858.753 4156.19,876.25C4151.02,867.8 4147.36,854.793 4145.2,837.229L4175.52,836.629C4234.26,829.27 4270.96,794.396 4285.61,732.011C4280.84,744.954 4270.17,760.309 4253.59,778.074L4252.03,767.145C4237.01,801.359 4211.89,813.785 4167.32,821.991C4179.03,811.603 4186.32,812.058 4198.55,805.79C4142.92,794.103 4142.26,839.254 4142.92,784.905C4127.78,839.951 4100.07,823.144 4086.7,867.662C4096.02,855.01 4109.29,847.463 4126.52,845.021C4133.24,863.122 4123.05,884.461 4112.55,898.923C4082.28,940.621 4091.79,907.229 4087.98,879.567C4083.11,917.15 4068.08,944.086 4042.89,960.373C4058.12,957.024 4079.56,943.33 4087.3,933.345C4108.92,945.316 4066.21,994.353 4043.08,997.441C4051.25,998.024 4058.78,997.984 4065.69,997.322C4050.63,1030.6 4036.61,1067.75 4013.74,1078.82C3998.64,1086.12 3988.24,1077.45 3986.34,1061.84C3986.27,1061.26 3986.2,1060.68 3986.13,1060.1C3997.15,1061.23 4009.43,1056.71 4022.98,1046.53C4009.45,1052.91 3994.81,1047.58 3979.06,1030.56C3979.06,1030.56 3986.38,1029.59 4001.02,1027.66C3993.09,1026.27 3903.93,928.061 3963.63,917.276ZM4135.34,1093.08C4151.53,1065.16 4168.74,978.147 4162.21,935.464C4141.92,967.714 4100.04,1044.17 4135.34,1093.08ZM3843.11,1293.42L3895.67,1363.02C3883.66,1361.87 3875.07,1362.46 3863.51,1364.67C3860.23,1355.14 3854.97,1344.23 3847.74,1331.96C3847.26,1320.8 3843.37,1314.59 3843.11,1293.42ZM4051.69,1242.53C4092.95,1327.37 3963.1,1311.61 3889.57,1229.58C3894.6,1277.71 4041.66,1339.64 4073.17,1315.07C4105.55,1379.46 4017.52,1341.75 3993.37,1336.66C4044.34,1369.79 4104.5,1381.25 4099.06,1380.77C4108.6,1395.62 4115.83,1402.34 4122.73,1405.84C4126.41,1407.7 4129.99,1408.65 4133.77,1409.42C4107.15,1348.44 4138.87,1318.66 4122.94,1254.59C4129.96,1236.26 4123.24,1208.91 4107.37,1185.07C4110.8,1171.33 4105.82,1154.69 4092.45,1135.16C4095.42,1097 4071.97,1086.34 4086.94,1016.06C4100,1141.97 4163.73,1187.93 4134.7,1358.55L4155.69,1296.6L4174.5,1400.92C4173.09,1413.35 4166.4,1420.64 4155.83,1424.17C4158.59,1412.9 4157.14,1392.2 4151.48,1362.06C4149.82,1394.58 4144.87,1416.16 4136.64,1426.79C4118.08,1426.79 4094.11,1421.54 4067.83,1414.07C4040.79,1403.47 3916.03,1325.28 3959.12,1307.74L3913.06,1281.2C3925.19,1293.82 3972.01,1361.66 3939.58,1347.39C3870.73,1317.08 3992.46,1383.77 3984.33,1389.6C3981.76,1391.45 3938.71,1374.35 3924.87,1371.83C3872.4,1300.98 3825.52,1248.34 3849.4,1254.75C3924.68,1274.96 3801.07,1208.83 3843.95,1165.71C3865.27,1167.01 3890.34,1165.24 3918.43,1153.83C3980.5,1128.61 3985.73,1126.43 4011.02,1159.03C4035.49,1190.57 3925.09,1203.36 3906.42,1198.6C3918.54,1212.12 3964.2,1227.5 4029.77,1188.53C4074.3,1255.25 3966.15,1253.39 3938.95,1250.04C3964.86,1264.32 4029.71,1265.13 4051.69,1242.53ZM3828.23,1267.85C3791.6,1244.94 3731.27,1181.49 3776.47,1160.98C3782.02,1158.46 3789.58,1158.67 3798.93,1159.86C3791.65,1192.89 3796.26,1226.46 3828.23,1267.85ZM4085.85,1301.77C4090.64,1292.91 4096.34,1282.87 4108.51,1274.87C4116.74,1337.64 4108.43,1343.79 4087.32,1355.39C4102.56,1342.87 4089.11,1317.92 4085.85,1301.77ZM4069.27,1226.58C4078.47,1220.54 4087.37,1210.29 4094.72,1203.72C4096.8,1228.86 4122.88,1239.7 4080.06,1275.83C4082.46,1264.03 4078.38,1239.91 4069.27,1226.58ZM4052.14,1180.69C4060.99,1174.56 4074.09,1163.27 4080.68,1157.09C4084.54,1175.83 4099.05,1183.02 4065.94,1217.15C4062.44,1203.86 4058.31,1193.47 4052.14,1180.69ZM4049.69,1175.81C4022.02,1119.85 3996.16,1121.24 4032.14,1096.1C4041.02,1089.89 4047.4,1082.86 4052.55,1078.73C4071.32,1088.27 4069.44,1154.08 4049.69,1175.81ZM3541.69,1275.32L3524.91,1275.32L3551.84,1306.55C3566.12,1312.04 3595.66,1325.7 3640.46,1347.54L3541.69,1275.32ZM3580.02,1189.38C3551.83,1229.58 3536.26,1251.38 3529.59,1260.1C3547.68,1222.3 3557.14,1196.62 3561.95,1187.32C3552.28,1188.19 3551.83,1187.83 3542.67,1183.88C3557.61,1180.29 3584.53,1139.27 3588.74,1131.67C3584,1154.96 3596.28,1196.47 3611.08,1212.87C3597.45,1209.97 3585.85,1204 3580.02,1189.38Z" style="fill:white;"/>
        </g>
        <g transform="matrix(1,0,0,1,-2919.96,-483.406)">
            <path d="M3908.83,850.2C3919.9,848.344 3927.43,835.978 3931.42,813.1C3930.45,811.692 3927.43,809.355 3922.38,806.089C3916.51,802.292 3907.88,797.238 3896.5,790.93C3913.25,795.062 3927.08,799.256 3934.17,806.089C3938.56,810.322 3940.36,815.565 3938.67,822.433L3951.6,824.589L3925.9,847.162C3906.38,863.994 3948.12,850.161 3913.97,899.402C3907.85,889.517 3901.75,877.822 3895.67,864.321C3899.52,867.452 3904.19,869.171 3909.66,869.478C3910.72,866.591 3910.45,860.165 3908.83,850.2ZM4063.97,603.655C4062.95,598.237 4064.2,591.883 4067.73,584.593C4067.85,592.419 4070.11,601.568 4072.89,611.159C4073.3,612.594 4073.73,614.04 4074.16,615.491C4069.88,615.325 4064.8,614.29 4058.95,612.382C4058.22,610.906 4057.54,609.402 4056.92,607.872C4059.6,607.568 4061.95,606.163 4063.97,603.655ZM4079.89,606.942C4082.13,605.833 4084.63,603.839 4087.39,600.961C4086.78,592.957 4089.57,585.34 4095.76,578.111C4094.69,580.787 4094.04,583.463 4094.23,585.815C4094.88,593.602 4096.91,601.262 4099.73,608.647C4100.1,609.603 4100.48,610.554 4100.87,611.5C4096.25,612.958 4090.73,613.642 4084.33,613.554C4083.8,613.841 4083.25,614.097 4082.66,614.32C4082.27,613.293 4081.88,612.274 4081.49,611.26C4080.94,609.815 4080.41,608.381 4079.89,606.942ZM4106.2,600.977C4108.68,599.956 4111.05,597.602 4113.3,593.914C4113.32,585.526 4116.05,577.039 4121.49,568.452C4117.45,578.385 4116.43,590.361 4120.83,603.288C4121.08,604.015 4121.34,604.743 4121.63,605.475C4118.94,607.258 4114.64,608.136 4108.75,608.096C4108.58,607.685 4108.42,607.275 4108.26,606.866C4107.5,604.907 4106.82,602.954 4106.2,600.977ZM4129.4,595.776C4133.25,593.295 4134.93,590.325 4134.44,586.867L4133.61,574.432C4139.17,559.242 4149.95,544.872 4165.94,531.321L4171.33,518.057C4178.49,521.233 4182.39,527.792 4183.01,537.733C4181.01,533.881 4178.4,530 4175.19,526.094L4173.58,537.541L4164.4,541.263L4149.91,561.633L4149.91,561.661L4139.26,576.702L4146.33,572.704L4147.04,587.638C4145.95,590.281 4144.53,592.513 4142.77,594.328C4140.17,597.017 4136.84,598.799 4132.77,599.673C4132.28,599.779 4131.77,599.872 4131.26,599.951C4130.62,598.581 4129.98,597.208 4129.4,595.776ZM3908.42,702.846C3898.6,696.299 3893.49,693.259 3893.08,693.727C3897.37,719.208 3896.31,740.282 3889.9,756.947C3890.19,755.62 3890.44,753.798 3890.63,751.408C3892.13,731.581 3883.75,697.303 3877.32,681.991C3877.32,681.991 3880.95,681.709 3885.15,683.047C3880.88,661.786 3863.77,644.485 3841,647.987C3844,644.895 3847.02,642.797 3850.06,641.692C3873.12,637.507 3896.38,638.544 3914.08,621.417C3915.68,622.615 3917.28,623.842 3918.87,625.098C3908.78,637.828 3887.79,649.343 3869.51,652.689C3869.03,652.463 3898.3,663.612 3908.42,702.846ZM3894.19,790.364C3932.84,785.111 3999.48,829.654 4010,787.478C4016.32,794.297 4016.68,800.788 4013.49,806.089C4007.19,816.565 3987,822.399 3971.48,816.957C3964,814.336 3956.29,810.271 3948.28,806.089C3931.8,797.49 3914.01,788.399 3894.19,790.364ZM4094.14,1333.89C4104.38,1315.66 4109.17,1295.99 4108.51,1274.87C4116.74,1337.64 4108.43,1343.79 4087.32,1355.39C4093.91,1349.98 4095.14,1342.24 4094.14,1333.89ZM4094.72,1203.72C4096.8,1228.86 4122.88,1239.7 4080.06,1275.83C4080.85,1271.94 4080.94,1266.7 4080.37,1260.94C4089.28,1247.52 4094.06,1228.45 4094.72,1203.72ZM4080.68,1157.09C4084.54,1175.83 4099.05,1183.02 4065.94,1217.15C4064.87,1213.11 4063.75,1209.34 4062.53,1205.68C4077.26,1189.73 4083.32,1173.53 4080.68,1157.09ZM4052.55,1078.73C4071.32,1088.27 4069.44,1154.08 4049.69,1175.81C4045.79,1167.94 4041.94,1161.2 4038.28,1155.36C4055.38,1129.65 4060.14,1104.1 4052.55,1078.73ZM4162.21,935.464C4142.5,983.552 4135.56,1031.77 4141.38,1080.11C4139.39,1085.22 4137.36,1089.61 4135.34,1093.08C4100.04,1044.17 4141.92,967.714 4162.21,935.464ZM4093.04,909.936C4115.93,877.684 4122.66,857.102 4113.22,848.189C4117.35,846.748 4121.79,845.692 4126.52,845.021C4133.24,863.122 4123.05,884.461 4112.55,898.923C4089.58,930.565 4089.52,918.967 4089.16,899.445L4093.04,909.936ZM3865.73,948.069C3903.1,953.003 3938.38,963.67 3927.6,1024.62C3946.34,1012.13 3940.03,1016.33 3940.03,1016.33C3937.83,1031.15 3946.36,1052.02 3925,1072.35C3947.19,1071.44 3952.9,1068.58 3964.12,1054.4C3965.11,1057.93 3966.06,1061.53 3966.99,1065.21C3981.39,1122.26 3871.07,1136.72 3834.11,1138.98C3792.71,1134.04 3767.32,1117.95 3757.94,1090.71C3754.91,1081.89 3754.4,1071.93 3755.58,1061.39C3759.44,1027 3781.27,986.506 3791.76,959.601C3768.16,1020.71 3735.44,1105.19 3825.43,1117.02C3886.93,1125.11 3961.28,1103.32 3923.71,1095.57C3900.21,1090.72 3918.16,1058.29 3921.98,1037.27C3921.98,1037.27 3903.74,1056.8 3895.04,1065.87C3911.6,1017.51 3939.71,971.113 3865.73,948.069ZM3787.2,1233.13C3762.55,1206.3 3746.85,1174.42 3776.47,1160.98C3782.02,1158.46 3789.58,1158.67 3798.93,1159.86C3769.5,1175.75 3766.87,1194.04 3787.2,1233.13ZM3849.4,1254.75C3924.68,1274.96 3801.07,1208.83 3843.95,1165.71C3831.91,1184.36 3852.21,1222.17 3904.84,1279.15C3901.7,1286.74 3889.96,1286.33 3869.6,1277.91C3887.85,1325.48 3925.25,1361.09 3981.8,1384.76C3984.3,1387.14 3985.36,1388.86 3984.33,1389.6C3981.76,1391.45 3938.71,1374.35 3924.87,1371.83C3872.4,1300.98 3825.52,1248.34 3849.4,1254.75ZM3929.15,1342.94C3949.96,1339.86 3931.7,1313.96 3916.88,1285.59C3932.66,1304.88 3969.22,1360.44 3939.58,1347.39C3935.43,1345.56 3931.98,1344.09 3929.15,1342.94ZM3959.12,1307.74C3930.97,1320.8 4041.67,1399.5 4138.12,1424.71C4137.64,1425.44 4137.14,1426.14 4136.64,1426.79C4118.08,1426.79 4094.11,1421.54 4067.83,1414.07C4040.79,1403.47 3916.03,1325.28 3959.12,1307.74ZM3993.37,1336.66C4035.56,1340.99 4062.17,1333.8 4073.17,1315.07C4105.55,1379.46 4017.52,1341.75 3993.37,1336.66ZM4051.69,1242.53C4083.55,1308.03 4013.4,1313.57 3945.93,1274.93C4007.68,1301.36 4042.93,1290.56 4051.69,1242.53ZM4029.77,1188.54C4074.3,1255.25 3966.15,1253.39 3938.95,1250.04C3989.29,1250.55 4019.57,1230.04 4029.77,1188.54ZM4011.02,1159.03C4035.49,1190.57 3925.09,1203.36 3906.42,1198.6C3966.13,1196.47 3994.53,1176.52 3991.61,1138.77C3997.66,1142.61 4003.44,1149.26 4011.02,1159.03ZM3634.21,1091.69C3653.58,1118.22 3670.64,1128.06 3706.08,1109.31C3715.43,1135.17 3696.06,1160.22 3676.77,1180.57C3660.01,1195.96 3639.17,1210.15 3617.06,1218.22L3578.81,1245.94L3623.31,1249.06C3625.55,1290.47 3642.75,1328.86 3674.91,1364.23C3647.82,1341.67 3625.78,1305.95 3608.77,1257.1L3578.81,1245.94C3718.27,1128.49 3666.94,1175.39 3634.21,1091.69ZM3611.08,1212.87C3595.39,1214.63 3584.95,1213.52 3579.76,1209.54L3550.03,1231.92C3557.83,1220.95 3567.73,1206.92 3580.02,1189.38C3585.85,1204 3597.45,1209.97 3611.08,1212.87ZM3557.89,1196.18C3552.23,1193.95 3547.15,1189.85 3542.67,1183.88C3551.83,1187.83 3552.28,1188.19 3561.95,1187.32C3560.86,1189.44 3559.52,1192.41 3557.89,1196.18ZM3596.99,1088.55C3564.5,1118.45 3544.91,1150.23 3538.2,1183.87C3532.87,1144.96 3549.88,1108.2 3589.24,1073.6C3591.4,1079.06 3593.99,1084.04 3596.99,1088.55ZM3684.52,1423.47C3717.93,1431.22 3729.15,1438.63 3752.2,1454.56C3727.75,1412.41 3626.16,1400.85 3542.97,1308.57C3573.77,1344.88 3559.82,1347.44 3564.41,1351.21C3517.82,1324.4 3511.25,1318.23 3514.86,1270.31L3498.9,1338.33L3495.27,1335.33C3491.27,1308.22 3501.2,1267.28 3525.06,1212.52C3515.25,1244.06 3517.11,1276.83 3530.63,1310.82L3532.29,1296.31C3597.49,1343.32 3662.43,1382.56 3727.12,1414.04L3770.23,1443.88L3754.47,1442.22C3764.45,1461.03 3779.1,1470.98 3798.42,1472.07C3809.53,1495.24 3830.33,1506.38 3860.81,1505.48C3857.69,1511.32 3850.88,1515.64 3844.66,1513.86C3844.51,1515.22 3844.13,1516.42 3843.54,1517.46C3840.22,1523.34 3830.32,1524.12 3819.1,1518.25C3788.6,1502.31 3786.95,1502.26 3772.55,1490.87L3773.16,1490.67L3775.09,1490.04C3778.21,1492.99 3782.25,1496.03 3786.96,1498.84C3789.7,1500.48 3792.66,1502.04 3795.8,1503.48C3809.98,1509.96 3827.76,1513.74 3844.56,1509.42C3814.95,1508.84 3802.18,1490.86 3790.91,1484.37L3790.88,1484.36C3794.69,1482.73 3797.14,1481.3 3798.27,1479.94C3770.49,1482.1 3743.92,1466.23 3684.52,1423.47ZM3702.1,1362.56C3687.84,1349.6 3677.3,1341.65 3670.49,1338.73C3663.58,1325.75 3658.38,1312.96 3655.71,1301.37C3672.32,1319.11 3687.78,1339.51 3702.1,1362.56ZM4023.4,965.172C4052.1,946.699 4073.63,918.164 4087.98,879.567C4083.11,917.151 4068.08,944.086 4042.89,960.373C4045.78,959.738 4048.88,958.732 4052.08,957.45C4043.22,961.079 4033.66,963.653 4023.4,965.172ZM4086.7,867.662C4079.71,829.435 4106.75,827.646 4125.86,806.089C4132.19,798.955 4137.64,789.655 4140.71,776.151C4144.34,776.284 4144.26,784.562 4143.04,793.218C4144.39,796.063 4147.19,798.678 4151.43,801.063C4169.24,792.503 4188.86,789.878 4210.29,793.187L4204.07,798.991C4221.96,794.659 4238.13,778.493 4252.57,750.492L4254.64,758.368C4263.08,754.972 4273.05,746.587 4284.58,733.212C4256.27,726.988 4238.26,714.896 4196.08,724.288C4213.75,716.088 4233.27,715.513 4248.77,719.911C4296.35,733.409 4319.51,719.658 4334.79,714.444C4310.76,709.25 4289.81,691.032 4271.94,659.794L4268.03,672.286C4252.24,662.629 4234.42,638.687 4214.55,600.458L4276.23,641.837C4259.7,626.205 4234.84,606.556 4201.67,582.894L4195.23,541.708C4217.19,575.551 4254.82,613.712 4308.12,656.192L4279.93,652.876C4295.04,685.494 4324.86,707.965 4369.39,720.288C4358.18,729.501 4338.67,735.113 4320.85,736.375C4314.07,736.639 4307.94,736.456 4302.29,735.957C4300.34,735.694 4298.47,735.355 4296.72,734.939C4296.97,735.108 4297.21,735.277 4297.46,735.443C4293.15,734.906 4289.12,734.191 4285.28,733.366C4285.39,732.916 4285.5,732.465 4285.6,732.012C4280.84,744.954 4270.17,760.309 4253.59,778.075L4252.03,767.145C4243.98,785.485 4233.03,797.565 4217.73,806.089C4204.49,813.468 4188,818.184 4167.32,821.991C4178.84,811.771 4186.08,812.045 4197.96,806.089C4198.16,805.991 4198.35,805.892 4198.55,805.79C4182.56,802.429 4171.11,803.769 4162.92,806.089C4148.02,810.318 4143.96,817.809 4143.05,806.089C4142.81,803.06 4142.78,798.746 4142.83,792.76C4142.85,790.408 4142.88,787.797 4142.92,784.905C4140.53,793.575 4137.83,800.464 4134.93,806.089C4119.4,836.178 4097.96,830.156 4086.7,867.662ZM4315.13,806.089C4305.27,810.566 4294.71,814.696 4283.45,818.477C4267.55,823 4253.25,824.187 4240.55,822.036C4256.24,818.427 4271.56,813.111 4286.5,806.089C4318.73,790.945 4349.2,767.86 4377.91,736.838C4388.94,730.285 4400.13,721.064 4411.49,709.176C4402.67,736.395 4385.84,759.647 4361,778.933C4344.69,790.106 4329.4,799.158 4315.13,806.089ZM4207.72,849.44C4263.91,850.067 4307.11,836.102 4337.32,807.546C4310.75,860.461 4262.35,881.801 4192.1,871.566L4207.72,849.44ZM4002.19,1036.24C4029.52,1045.12 4041.2,1026.12 4047.17,1009.08C4038.42,1011.57 4023.49,1007.42 4002.4,996.648C4044.21,997.029 4073.64,976.846 4090.7,936.097C4103.5,951.442 4064.72,994.552 4043.08,997.441C4051.25,998.024 4058.78,997.983 4065.69,997.322C4050.63,1030.6 4036.61,1067.75 4013.74,1078.82C3998.64,1086.12 3988.24,1077.45 3986.34,1061.84L3986.13,1060.1C3997.15,1061.23 4009.43,1056.71 4022.98,1046.53C4009.45,1052.91 3994.81,1047.58 3979.06,1030.56L4001.02,1027.66C3994.33,1026.48 3929.73,956.301 3945.7,927.979C3955.69,974.657 3995.13,1023.36 4025.82,1028.98C4014.52,1034.02 4010.07,1035.68 4002.19,1036.24ZM3649.85,1053.23C3696.43,1053.24 3742.82,1023.23 3789.01,963.213C3770.51,989.435 3727.88,1081.37 3671.72,1084.32C3678.01,1123.61 3629.26,1079.9 3617.79,1067.08C3631.15,1079.79 3644.87,1082.64 3658.97,1075.62L3649.85,1053.23ZM3879.09,906.363C3882.25,899.398 3877.55,870.197 3879.11,822.908C3892.56,882.489 3892.63,906.219 3903.93,928.061C3903.97,928.223 3829.9,940.839 3820.23,941.448C3851.43,934.907 3875.75,924.594 3879.09,906.363ZM3790.64,900.355C3762.7,920.209 3743.94,940.495 3734.35,961.21C3729.48,955.673 3723.38,950.936 3715.6,948.015C3729.73,935.206 3754.74,919.32 3790.64,900.355ZM3848.74,781.776C3859.62,785.36 3876.43,794.613 3884.2,789.091C3883.12,792.018 3881.86,794.539 3880.39,796.506C3870.52,809.746 3863.1,789.253 3847,787.11C3842.47,786.812 3848.9,793.333 3850.12,806.089C3851.03,815.591 3849.04,828.552 3837.47,844.729C3835.95,841.689 3835.19,832.708 3835.19,832.708C3828.26,852.891 3819.11,868.391 3807.73,879.21C3811.3,867.159 3809.55,856.524 3804.72,846.322C3812.89,842.396 3815.13,848.381 3814.37,852.555C3826.16,845.987 3829.99,827.847 3833.06,815.136C3835.78,818.734 3837.31,822.474 3837.64,828.4C3843.65,819.338 3845.52,812.415 3845.25,806.089C3844.77,794.99 3837.69,785.73 3834.72,769.98C3838.02,775.483 3842.7,779.787 3848.74,781.776Z" style="fill:rgb(179,179,179);"/>
        </g>
        <g transform="matrix(1,0,0,1,-2919.96,-483.406)">
            <path d="M3606.16,1098.03L3604.61,1093.74C3595.64,1069.14 3583.84,1039.31 3569.16,1017.97C3554.63,944.344 3515.3,888.812 3441.62,866.178C3425.96,860.63 3410.33,854.608 3395.24,847.658L3386.82,843.78L3379.42,839.818C3378.3,839.221 3377.19,838.611 3376.08,837.993C3368.31,833.638 3357.57,827.022 3351.49,819.896C3350.92,818.96 3350.28,818.107 3349.55,817.315C3349.72,814.975 3349.67,812.715 3348.94,809.602C3347.03,801.487 3346.83,792.065 3347.1,783.574C3349.8,775.873 3351.98,768.118 3353.45,760.06C3353.68,758.764 3353.96,756.503 3354.29,754.477C3365.07,749.134 3372.75,741.42 3377.8,732.104C3376.6,742.151 3375.14,750.803 3373.71,757.164C3400.08,751.891 3409.74,730.801 3409.74,730.801C3411.7,767.99 3453.52,813.751 3494.98,816.04C3396.31,749.114 3552.44,480.132 3313.71,549.107C3219.74,526.804 3158.45,604.764 3172.88,663.45C3167.57,684.231 3168.14,708.075 3169.66,725.834C3171.42,746.432 3179.93,805.224 3196.62,820.354C3198.74,822.38 3200.92,824.27 3203.16,826.021C3202.67,831.262 3200.32,836.726 3194.85,843.456L3163.22,864.187L3163.2,864.224C3155.63,865.145 3148.02,865.129 3140.44,864.023C3136.58,862.78 3132.57,862.068 3128.52,861.812C3115.25,860.969 3101.68,864.932 3089.84,870.685C3082.03,874.482 3074.63,879.208 3067.77,884.54C3047.41,900.377 3031.02,922.205 3022.14,946.468C3018.58,956.18 3016.23,966.287 3015.2,976.577L2953.34,1073.64L2951.94,1072.01L2952.37,1075.16L2936.07,1100.73C2900.95,1155.84 2933.16,1238.32 2940.03,1297.96C2943.8,1330.7 2948.83,1367.04 2958.88,1398.49L2959.78,1401.3L3001.27,1455.24L3030.19,1463.06L3033.07,1461.21C3034.29,1462.55 3035.6,1463.82 3036.99,1464.99C3041.11,1468.43 3045.91,1470.84 3051.25,1471.63C3056.82,1472.45 3062.35,1471.4 3067.34,1468.83C3067.62,1468.68 3067.9,1468.54 3068.17,1468.38C3073.18,1470.62 3078.59,1471.58 3083.59,1470.92C3125.71,1514.68 3190.27,1513.88 3247.42,1501.43C3250.11,1510.52 3258.6,1518.34 3265.62,1524.19L3266.28,1524.74L3294.85,1543.98L3301.38,1542.97C3318.89,1540.26 3329.12,1529.51 3330.15,1514.85C3355.73,1517.9 3379.55,1510.86 3400.48,1493.5C3485.71,1442.1 3613.77,1355.68 3651.23,1259.25L3653.22,1254.12L3651.81,1248.81C3638.47,1198.69 3624.13,1147.92 3606.55,1099.11L3606.16,1098.03ZM3050.25,1320.65C3043.47,1320.31 3036.87,1322.21 3030.79,1325.37L3029.48,1326.05C3029.48,1311.87 3029.1,1297.56 3028.89,1283.52C3028.29,1243.65 3027.59,1203.79 3026.74,1163.93L3073.95,1122.55C3077.71,1135.53 3083.06,1148.52 3087.41,1158.55C3087.84,1160.6 3088.21,1162.67 3088.52,1164.76L3089.1,1178.94C3090.37,1210.26 3082.62,1245.22 3073.86,1275.41C3064.88,1287.1 3053.04,1307.01 3050.25,1320.65ZM3450.95,1118.55L3454.07,1114.89C3467.04,1139.34 3480.05,1163.77 3493.2,1188.12C3498.16,1197.29 3503.13,1206.46 3508.2,1215.58C3509.32,1217.59 3510.44,1219.64 3511.59,1221.67C3485.17,1272.05 3424.71,1380.06 3366.29,1404.83C3368.82,1382.33 3371.17,1359.78 3373,1337.25C3373.77,1327.69 3374.47,1318.08 3374.8,1308.49C3374.95,1304.28 3375.08,1299.83 3374.93,1295.48C3388.85,1271.23 3403.4,1245.64 3414.7,1220.27L3421.89,1204.14L3420.44,1203.57C3420.93,1201.92 3421.36,1200.27 3421.7,1198.66C3433.32,1173.58 3444.8,1145.73 3450.95,1118.55Z" style="fill:rgb(4,29,48);"/>
        </g>
        <g transform="matrix(1,0,0,1,-2919.96,-483.406)">
            <path d="M3364.03,1487.08C3334.98,1484.42 3324.25,1487.1 3318.12,1485.88C3312.4,1489.72 3295.47,1503.08 3298.65,1510.4C3301.01,1515.81 3302.05,1512.16 3302.05,1512.16C3302.58,1512.18 3300.87,1511.93 3300.49,1510.39C3299.99,1508.39 3302.61,1504.01 3302.97,1503.94C3302.85,1504.14 3311.31,1504.26 3313.96,1509.71C3314.45,1516.3 3311.62,1522.09 3305.34,1524.38C3298.32,1526.95 3281.24,1513.51 3276.37,1508.85C3271.05,1507.68 3260.47,1496.23 3262.02,1489.28C3258.4,1484.55 3251.15,1473.66 3251.16,1468.5C3263.99,1450.01 3272.46,1441.73 3291.94,1431.04C3273.17,1432.13 3216.5,1472.74 3207.88,1462.06C3206.91,1459.92 3206.46,1457.5 3206.24,1455.16C3212.43,1451.25 3218.67,1447.37 3224.96,1443.57L3224.97,1443.57C3229.83,1440.63 3234.73,1437.74 3239.64,1434.92C3245.6,1431.61 3251.88,1428.36 3258.47,1425.17C3258.5,1425.37 3258.54,1425.57 3258.58,1425.77L3258.48,1425.16C3266.07,1421.49 3274.08,1417.88 3282.51,1414.34C3287.3,1412.82 3291.4,1411.97 3294.78,1411.81C3306.34,1414.45 3316.78,1417.14 3326.11,1419.89L3346.79,1426.74C3400.22,1423.7 3461.58,1355.18 3530.87,1221.17C3530.81,1221.07 3530.75,1220.98 3530.69,1220.88L3549.9,1179.93L3538.75,1192.54L3534.14,1197.75C3516.78,1168.28 3508.33,1137.6 3497.82,1109.35L3506.73,1151.84C3476.08,1119.94 3453.63,1083.94 3455,1036.03L3513.45,1059.24L3524.89,1063.79C3493.83,1050.08 3457.51,1022.78 3415.94,981.9C3414.68,1026.8 3419.32,1019.42 3392.77,1056.7C3375,1030.1 3361.8,998.578 3353.17,962.128L3373.02,905.919C3385.9,896.913 3398.92,894.893 3412.07,899.859C3422.4,899.622 3430.97,904.305 3437.77,913.907C3438.08,905.054 3433.09,898.855 3422.78,895.312C3409.34,890.689 3394.95,882.944 3380.88,883.656L3388.18,862.983C3401.8,869.253 3417.85,875.661 3436.33,882.203C3447.74,885.685 3458.35,890.055 3468.16,895.312C3513.45,919.563 3541.82,962.702 3553.28,1024.73C3573.28,1052.03 3597.21,1115.41 3625.06,1214.87C3556.99,1297.12 3502.47,1354.8 3461.5,1387.9C3519.46,1347.48 3561.03,1312.31 3586.22,1282.37C3580.6,1317.68 3512.99,1376.16 3383.39,1457.79L3394.69,1458.13C3393.17,1472.33 3381.24,1479.81 3358.89,1480.58L3364.03,1487.08ZM3280.69,1491.55L3295.6,1476.95L3307.08,1474.48L3297.84,1479.59L3283.33,1498.74C3282.39,1497.04 3280.77,1495.02 3280.69,1491.55ZM3269.33,1480.48L3282.59,1462.98L3301.51,1450.81L3280.36,1460.33L3267.22,1474.09C3267.37,1477.22 3267.92,1479.52 3269.33,1480.48ZM3242.29,1421.15C3238.54,1362.01 3309.86,1298.21 3285.47,1247.89C3280.11,1300.35 3284.22,1302.22 3251.21,1310.53C3275.54,1337.95 3231.04,1386.27 3208.72,1384.6C3267.88,1396.17 3189.3,1439.81 3183.84,1448.02C3169.14,1446.5 3154.61,1441.58 3140.24,1433.25C3149.47,1415.39 3154.27,1403.81 3161.45,1386.17C3173.54,1386.1 3187.94,1382.19 3192.62,1377.06C3179.57,1378.42 3173.06,1373.53 3168.19,1368.86C3174.84,1350.93 3180.45,1333.08 3185.01,1315.32C3194.83,1316.56 3203.1,1316.38 3211.8,1313.33C3204.83,1313.47 3194.48,1307.75 3188,1303.01C3196.51,1265.98 3200.45,1229.34 3199.81,1193.07C3192.03,1241.85 3180.07,1291.73 3175.98,1299.61C3142.49,1292.95 3131.92,1264.4 3130.69,1243.65C3124.76,1273.43 3133.04,1306.54 3169.13,1313.31C3163.89,1342.11 3159.76,1351.66 3154.03,1356.21C3141.83,1353.24 3127.77,1339.49 3116.22,1319.16C3120.45,1348.35 3130.85,1371.7 3143.07,1384.99C3134.5,1413.34 3131.85,1413.52 3125.81,1414.4C3106.38,1387.44 3092.45,1365.97 3084.01,1349.99C3084.96,1319.71 3089.43,1316.24 3101.14,1286.95L3102.51,1310.25C3120.61,1269.21 3125.8,1224.92 3118.08,1177.36C3214.62,1170.83 3300.03,1179.84 3374.29,1204.4C3384.21,1232.79 3364.42,1259.51 3314.91,1284.55C3306.55,1272.54 3308.54,1278.05 3305.48,1269.95C3301.85,1315.31 3264.83,1378.67 3258.94,1412.68C3252.6,1415.89 3247.05,1418.71 3242.29,1421.15ZM3307.43,1399.34C3309.38,1380.26 3317.52,1358.48 3325.15,1342.44C3335.56,1320.55 3299.31,1356.34 3301.89,1349.64C3314.64,1299.16 3342.92,1308.51 3358.08,1297.47C3358.27,1307.6 3354.36,1376.68 3351.26,1377.04C3346.27,1388.14 3340.19,1398.3 3333.01,1407.51C3325.13,1406.04 3316.61,1403.31 3307.43,1399.34ZM3332.31,702.743C3335.89,703.183 3344.31,705.063 3343.61,710.547C3342.85,716.486 3329.81,719.388 3341.11,735.507C3371.72,716.192 3364.92,663.29 3332.32,684.251C3357.79,673.34 3362.01,701.971 3350.7,716.542C3336.72,734.56 3366.27,695.25 3332.31,702.743ZM3413.97,659.526C3416.12,634.887 3411.82,614.042 3401.1,596.988C3411.12,627.083 3410.81,669.807 3405.63,710.494C3405.59,688.98 3404.08,682.383 3401.29,673.393C3404.1,685.342 3398.04,715.56 3387.61,734.66C3400.7,665.014 3393.53,610.972 3366.08,572.531C3375.47,578.095 3387.12,593.228 3389.28,601.277C3391.01,588.955 3377.3,574.704 3365.95,564.919C3359.22,561.178 3351.8,557.847 3343.67,554.931C3407.01,542.511 3439.74,565.494 3441.85,623.875C3432.49,594.017 3420.27,576.416 3405.2,571.076C3434.36,601.59 3446.73,657.445 3442.29,738.638C3437.99,703.817 3434.5,683.453 3431.82,677.548C3422.89,723.442 3434.09,763.441 3465.42,797.546C3421.74,758.312 3408.1,706.445 3424.52,641.949C3417.49,653.667 3413.97,659.526 3413.97,659.526ZM3230.41,601.788C3213.45,606.755 3201.54,624.505 3182.09,656.338C3183.15,609.826 3218.72,573.914 3238.79,565.796C3229.7,570.718 3218.35,585.263 3215.92,593.35C3222.55,588.068 3241.37,555.691 3287.33,554.384C3245.18,562.39 3236.63,586.208 3236.63,586.208C3263.06,566.448 3285.91,560.189 3318.17,566.113C3286.11,567.779 3270.02,572.653 3258.66,588.609C3271.1,576.969 3293.49,574.657 3314.21,574.294C3306.68,577.495 3298.02,582.554 3288.23,589.473C3306.13,581.006 3326.93,575.822 3350.65,573.92C3328.3,583.253 3315.46,597.611 3306.52,611.936C3321.11,596.361 3350.21,584.731 3350.21,584.731C3335.9,608.691 3309.47,641.651 3309.47,641.651C3331.01,629.058 3345.78,614.161 3353.75,596.96C3345.63,624.549 3341.58,638.344 3341.58,638.344C3358.62,623.038 3362.66,598.183 3362.66,598.183C3366.47,608.072 3363.92,633.438 3362.71,644.274C3372.14,636.589 3373.87,606.909 3373.87,606.909C3380.41,644.444 3376.26,663.073 3366.82,683.733C3373.02,654.713 3369.06,646.171 3369.06,646.171C3366.53,650.196 3366.72,655.324 3354.64,667.434C3358.56,651.625 3358.75,635.236 3354.58,632.208C3357.59,647.499 3343.62,666.161 3343.77,664.982C3344.44,659.796 3342.55,647.666 3342.11,650.16C3341.23,655.061 3331.02,670.303 3320.24,687.27C3329.34,663.607 3333.79,652.479 3334.54,644.423C3325.72,660.108 3320.86,667.434 3315.35,672.132C3320.27,661.297 3324.48,654.33 3325.72,648.852C3317.53,655.348 3308.33,664.749 3306.15,666.19C3318.76,649.852 3320.8,648.026 3326.86,638.96C3309,655.726 3297.95,667.181 3285.34,669.041C3294.9,660.815 3302.34,645.877 3303.64,640.965C3230.73,699.455 3273.37,674.268 3294.04,633.04C3279.61,649.248 3244.81,671.14 3244.81,671.14C3267.67,653.013 3299.83,623.984 3307.99,619.67C3279.4,632.819 3241.2,658.709 3233.33,667.669C3240.51,656.947 3266.81,634.658 3272.29,630.474C3258.24,635.114 3228.35,655.886 3216.57,661.96C3233.01,646.414 3267.79,614.601 3292.75,606.944C3264.36,611.026 3239.34,630.232 3219.12,648.162C3232.55,626.179 3250.31,611.88 3263.06,604.218C3237.1,609.186 3201.38,644.489 3201.38,644.489C3207.86,622.555 3218.08,611.588 3230.41,601.788ZM3213.47,1030.44C3196.65,1008.84 3175.73,993.849 3150.73,985.46C3149.38,988.422 3148.11,991.4 3146.88,994.416C3154.16,1009.3 3164.7,1020.57 3178.52,1028.24C3189.63,1031.14 3201.29,1031.88 3213.47,1030.44ZM3112.94,982.068C3127.02,960.042 3147.03,925.937 3172.99,879.755C3172.42,879.864 3171.86,879.967 3171.29,880.067C3159.15,882.219 3147.54,882.358 3136.48,880.481L3136.38,880.465L3136.3,880.434C3133.58,879.438 3130.61,878.85 3127.46,878.649C3118.43,878.077 3107.91,880.661 3097.22,885.859C3090.83,888.964 3084.37,893.002 3078.13,897.856C3061.39,910.881 3046.22,929.765 3037.98,952.267C3034.88,960.741 3032.76,969.732 3031.91,979.112C3031.83,980.023 3031.76,980.939 3031.7,981.855L3031.68,982.081L3031.57,982.285L2950.3,1109.8C2919.63,1157.93 2950.42,1240.7 2956.79,1296.04C2961.64,1338.2 2967.7,1370.64 2974.95,1393.36L2975.05,1393.5C2977.01,1385.59 2982.87,1376.07 2994.55,1375.09C2999.46,1367.64 3007.19,1359.68 3019.64,1361.65C3021.06,1356.11 3030.42,1349.26 3036.77,1350C3033.68,1351.28 3025.23,1359.27 3022.38,1365.08C3010.38,1363.69 3000.88,1372.96 2999.52,1381.43C2978.53,1385.33 2989.59,1402.27 3000.99,1415.75C3016.36,1433.93 3013.9,1431.11 3036.42,1438.47C3026.79,1427.41 3013.14,1407.43 3004.47,1399.54C3043.62,1417.35 3044.81,1469.04 3063.96,1450.61L3045.76,1404.34L3027.94,1376.93L3049.53,1403.31L3069.82,1449.68C3074.22,1453.28 3082.06,1457.03 3084.24,1451.74C3084.49,1451.15 3084.71,1447.55 3084.8,1446.72C3085.12,1443.72 3084.47,1443.04 3083.3,1438.27C3082.75,1436.04 3082.08,1433.55 3081.32,1430.73L3065.7,1396.46L3043.09,1358.43L3070.08,1390.46L3079.9,1417.22C3082.27,1417.95 3084.73,1417.73 3087.27,1416.56C3093.13,1415.57 3090.77,1385.52 3084.82,1374.31C3081.9,1368.81 3061.43,1339.47 3051.09,1337.69C3033.61,1336.16 3010.19,1343.39 3003.36,1345.62L3016.2,1321.19L2996.48,1174.4L2975.35,1124.08C2982.99,1132.98 2992.58,1141.2 3004.13,1148.75L3055.52,1088.45L3012.32,1097.44C3080.36,1047.63 3083.3,1027.08 3117.19,954.83L3112.94,982.068ZM3190.84,668.928C3163.9,772.365 3245.03,881.657 3318.61,790.801C3316.99,805.249 3264.87,895.673 3227.47,850.221C3222.66,898.215 3218.36,918.154 3212.67,928.634L3209.93,916.984C3185.56,931.243 3168.1,951.504 3155.15,976.404C3178.84,981.045 3204.4,997.831 3231.84,1026.76C3252.14,987.854 3279.78,965.193 3314.76,958.78C3279.63,980.837 3258.45,1001.19 3251.21,1019.84C3275.74,1009.25 3302.11,991.233 3330.33,965.784C3325.02,969.033 3338.73,932.004 3371.45,854.693C3370.22,854.032 3369.01,853.372 3367.84,852.712C3337.94,835.965 3338.06,837.093 3332.51,813.457C3330.48,804.794 3329.76,793.755 3330.34,780.339C3339.47,755.3 3336.28,748.72 3341,741.779C3364.4,730.653 3372.05,694.364 3357.23,676.487C3338.55,669.016 3330.69,674.057 3324.38,696.476C3323.66,700.793 3322.97,705.428 3322.03,710.369C3301.75,713.244 3314.16,702.022 3298.15,690.163C3266.24,666.532 3240.86,699.687 3190.84,668.928Z" style="fill:white;"/>
        </g>
        <g transform="matrix(1,0,0,1,-2919.96,-483.406)">
            <path d="M3448.15,1403.27C3424.87,1430.66 3388.87,1450.91 3340.15,1464.02C3306.82,1482.04 3288.11,1499.09 3284.02,1515.17C3286.13,1516.75 3288.45,1518.36 3290.8,1519.79C3296.32,1523.18 3301.98,1525.61 3305.34,1524.38C3311.62,1522.09 3314.45,1516.3 3313.96,1509.71C3312.86,1507.45 3310.77,1506.11 3308.7,1505.29C3305.77,1504.15 3302.9,1504.06 3302.97,1503.94C3302.61,1504.01 3299.99,1508.39 3300.49,1510.39C3300.87,1511.93 3302.58,1512.18 3302.05,1512.16C3302.05,1512.16 3301.01,1515.81 3298.65,1510.4C3295.47,1503.08 3312.4,1489.72 3318.12,1485.88C3323.89,1487.03 3333.74,1484.72 3359.12,1486.67C3360.69,1486.79 3362.33,1486.93 3364.03,1487.08L3362.46,1485.1L3358.89,1480.58C3364.31,1480.39 3369.12,1479.81 3373.31,1478.83C3382.9,1476.6 3389.29,1472.31 3392.48,1465.95C3393.65,1463.62 3394.38,1461.01 3394.69,1458.13L3383.39,1457.79C3512.99,1376.16 3580.6,1317.68 3586.22,1282.37C3561.03,1312.31 3519.46,1347.48 3461.5,1387.9C3502.47,1354.8 3556.99,1297.12 3625.06,1214.87C3548.21,1280.59 3461.5,1387.9 3388.52,1434.39L3448.15,1403.27ZM3322.03,710.369C3301.75,713.244 3314.16,702.022 3298.15,690.164C3266.24,666.532 3240.86,699.687 3190.84,668.928C3214.05,696.75 3260.4,680.297 3287.66,690.852C3297.69,694.732 3298.88,723.785 3322.03,710.369ZM3330.34,780.339C3330.88,778.87 3331.37,777.464 3331.83,776.117C3331.02,777.206 3330.17,778.292 3329.29,779.376C3326.17,783.212 3322.61,787.021 3318.61,790.801C3317.45,801.143 3290.42,850.409 3261.43,860.911C3301.02,848.519 3317.4,814.317 3330.18,785.69C3330.21,783.951 3330.26,782.167 3330.34,780.339ZM3023.42,1434.33C3012.73,1422.01 3000.99,1406.77 2988.19,1388.61C2985.62,1395.79 2993.23,1406.57 3000.99,1415.75C3012.46,1429.32 3014,1431.19 3023.42,1434.33ZM3070.08,1390.46L3079.9,1417.22C3080.83,1417.51 3081.77,1417.65 3082.73,1417.64C3082.1,1412.22 3079.97,1402.21 3076.36,1387.62C3073.65,1384.68 3062.56,1374.95 3043.09,1358.43L3070.08,1390.46ZM3073.58,1452.24C3070.38,1438.2 3064.24,1421.34 3055.17,1401.68C3053.11,1394.85 3044.03,1386.6 3027.94,1376.93L3049.53,1403.31L3069.82,1449.68C3070.91,1450.57 3072.21,1451.47 3073.58,1452.24ZM3053.36,1448.34C3048.12,1438.77 3039.98,1425.47 3028.92,1408.43C3024.08,1403.11 3015.93,1400.15 3004.47,1399.54C3029.57,1410.96 3039.07,1436.31 3047.7,1448.17C3050.58,1452.12 3053.36,1454.58 3056.6,1454.52C3055.68,1452.67 3054.6,1450.61 3053.36,1448.34ZM3181.81,979.597C3187.15,963.03 3197.99,941.228 3205.28,930.243C3211.42,937.697 3212.35,939.945 3218.41,959.493C3220.64,918.052 3234.89,870.619 3244.09,861.961C3238.38,860.377 3232.77,856.669 3227.47,850.222L3227.47,850.221L3227.24,852.45L3227.02,854.639L3226.79,856.787L3226.57,858.896C3226.5,859.592 3226.42,860.282 3226.35,860.965L3226.13,862.995L3225.9,864.986L3225.68,866.939L3225.46,868.855L3225.24,870.734C3225.17,871.354 3225.1,871.968 3225.02,872.576L3224.8,874.381L3224.58,876.15L3224.36,877.884L3224.14,879.583L3223.93,881.247L3223.71,882.876C3223.63,883.414 3223.56,883.945 3223.49,884.472C3223.42,884.998 3223.34,885.519 3223.27,886.034C3223.2,886.55 3223.12,887.059 3223.05,887.563C3222.98,888.068 3222.9,888.566 3222.83,889.06L3222.61,890.524L3222.61,890.525L3222.39,891.958C3222.32,892.43 3222.25,892.897 3222.17,893.359C3222.1,893.821 3222.03,894.278 3221.95,894.729L3221.73,896.07C3221.66,896.512 3221.58,896.948 3221.51,897.38C3221.44,897.812 3221.36,898.238 3221.29,898.661C3221.22,899.082 3221.14,899.499 3221.07,899.912C3220.99,900.324 3220.92,900.731 3220.85,901.134L3220.85,901.135C3220.77,901.537 3220.7,901.936 3220.62,902.329C3220.55,902.722 3220.47,903.11 3220.4,903.495C3220.32,903.879 3220.25,904.259 3220.18,904.634C3220.1,905.009 3220.03,905.38 3219.95,905.746C3219.88,906.112 3219.8,906.474 3219.72,906.831C3219.65,907.188 3219.57,907.542 3219.5,907.89C3219.42,908.239 3219.35,908.583 3219.27,908.923C3219.2,909.264 3219.12,909.6 3219.04,909.931L3219.04,909.932C3218.97,910.263 3218.89,910.591 3218.81,910.914L3218.81,910.915C3218.74,911.238 3218.66,911.557 3218.58,911.873C3218.51,912.188 3218.43,912.5 3218.35,912.807C3218.28,913.115 3218.2,913.418 3218.12,913.718C3218.04,914.018 3217.97,914.313 3217.89,914.605C3217.81,914.897 3217.73,915.186 3217.66,915.47C3217.58,915.755 3217.5,916.035 3217.42,916.313C3217.34,916.59 3217.26,916.863 3217.18,917.133C3217.1,917.403 3217.03,917.669 3216.95,917.932C3216.87,918.194 3216.79,918.454 3216.71,918.71C3216.63,918.965 3216.55,919.218 3216.47,919.467C3216.39,919.716 3216.3,919.961 3216.22,920.204C3216.14,920.446 3216.06,920.685 3215.98,920.921C3215.9,921.157 3215.82,921.389 3215.74,921.618L3215.74,921.619C3215.65,921.848 3215.57,922.074 3215.49,922.297C3215.41,922.521 3215.33,922.741 3215.24,922.958C3215.16,923.175 3215.08,923.389 3214.99,923.6C3214.91,923.811 3214.83,924.019 3214.74,924.224C3214.66,924.429 3214.57,924.632 3214.49,924.831C3214.4,925.031 3214.32,925.228 3214.23,925.421L3214.23,925.422C3214.15,925.615 3214.06,925.807 3213.98,925.995C3213.89,926.184 3213.81,926.37 3213.72,926.553C3213.63,926.736 3213.55,926.917 3213.46,927.096C3213.37,927.274 3213.29,927.449 3213.2,927.623C3213.11,927.796 3213.02,927.967 3212.93,928.135C3212.84,928.304 3212.76,928.469 3212.67,928.633L3212.67,928.634L3209.93,916.984C3185.56,931.243 3168.1,951.504 3155.15,976.404C3178.84,981.045 3204.4,997.831 3231.84,1026.76C3252.14,987.854 3279.78,965.193 3314.76,958.78C3278.73,959.111 3247.95,974.492 3230.6,1008.8C3222.72,1001.78 3200.68,987.224 3181.81,979.597ZM3008.54,1143.58L3011.95,1139.58L3055.52,1088.45L3012.32,1097.44C3080.36,1047.63 3083.3,1027.08 3117.19,954.83L3112.94,982.068C3127.02,960.042 3147.03,925.937 3172.99,879.755L3171.29,880.066C3165.37,881.117 3159.57,881.688 3153.9,881.779C3147.95,881.875 3142.14,881.442 3136.48,880.481L3136.38,880.465L3136.3,880.434C3133.58,879.438 3130.61,878.851 3127.46,878.649C3118.43,878.077 3107.91,880.661 3097.22,885.859C3090.93,888.913 3084.59,892.868 3078.44,897.614C3105,887.25 3128.18,887.561 3147.98,898.549C3141.81,915.101 3135.36,929.466 3128.65,941.64L3122.65,926.64C3097.54,975.993 3083.29,1051.31 2983.48,1107.44C3001.56,1107.9 3008.95,1108.88 3005.65,1110.39C2998.64,1121.89 2994.38,1131.99 2992.84,1140.67C2996.37,1143.44 3000.13,1146.14 3004.13,1148.75L3008.54,1143.58ZM2982.4,1306.14C2964.39,1267.31 2949.61,1211.63 2938.79,1141.12C2930.61,1188.88 2951.65,1251.39 2956.79,1296.04C2961.64,1338.2 2967.7,1370.64 2974.95,1393.36L2975.06,1393.5C2976.85,1386.23 2981.96,1377.58 2991.85,1375.48C2977.1,1352.05 2968.7,1321.19 2966.65,1282.89L2982.4,1306.14ZM3285.47,1247.89C3280.37,1277.62 3270.89,1297.99 3257.05,1309.01C3283.73,1301.78 3280.45,1297.02 3285.47,1247.89ZM3159.08,1391.97C3153.12,1406.52 3148.42,1417.42 3140.24,1433.25C3154.61,1441.58 3169.14,1446.5 3183.84,1448.02C3185.7,1445.22 3196.07,1438.3 3206.57,1429.94C3173.1,1444.67 3157.27,1432.01 3159.08,1391.97ZM3141.84,1388.99C3095.08,1370.27 3079.82,1340.37 3096.04,1299.29C3088.08,1318.05 3084.8,1324.58 3084.01,1349.99C3092.45,1365.97 3106.38,1387.44 3125.81,1414.4C3131.56,1413.56 3134.23,1413.36 3141.84,1388.99ZM3154.03,1356.21C3157.49,1353.46 3160.36,1348.91 3163.24,1339.41C3143.84,1351.54 3128.91,1335.78 3116.22,1319.16C3127.77,1339.49 3141.83,1353.24 3154.03,1356.21ZM3168.19,1368.86C3173.06,1373.53 3179.57,1378.42 3192.62,1377.06C3166.74,1361.96 3181.78,1347.39 3185.01,1315.32C3180.45,1333.08 3174.84,1350.93 3168.19,1368.86ZM3211.8,1313.33C3201.87,1304 3198.81,1309.57 3199.88,1200.57C3199.88,1236.46 3195.9,1268.62 3188,1303.01C3194.48,1307.75 3204.83,1313.47 3211.8,1313.33ZM3175.98,1299.61C3177.53,1296.63 3180.2,1287.64 3183.35,1274.97C3167.3,1288.26 3140.74,1289.82 3130.69,1243.65C3131.92,1264.4 3142.49,1292.95 3175.98,1299.61ZM3226.79,1368.13C3221.59,1373.65 3215.57,1379.14 3208.72,1384.6C3226.48,1385.93 3258.27,1355.62 3258.27,1329.36C3251.12,1341.64 3240.62,1354.56 3226.79,1368.13ZM3253.85,1202.59C3304.79,1219.16 3333.47,1230.69 3339.89,1237.17C3335.05,1253.7 3323.58,1264.63 3305.48,1269.95C3308.54,1278.05 3306.55,1272.54 3314.91,1284.55C3363.35,1260.05 3383.34,1233.95 3374.89,1206.23C3374.88,1206.2 3374.87,1206.17 3374.87,1206.14L3374.74,1205.73C3374.6,1205.28 3374.45,1204.84 3374.29,1204.4C3300.03,1179.84 3214.62,1170.83 3118.08,1177.36C3125.8,1224.92 3120.61,1269.21 3102.51,1310.25C3118.96,1290.8 3129.16,1250.91 3133.1,1190.59C3200.48,1179.47 3272.23,1187.22 3348.35,1213.84C3305.33,1208.96 3273.83,1205.21 3253.85,1202.59ZM3352.91,1337.17C3347.07,1358.1 3339.05,1373.6 3331.15,1379.64L3336.03,1363.14C3328.34,1372.3 3319.57,1379.82 3309.71,1385.7C3308.67,1390.33 3307.88,1394.91 3307.43,1399.34C3316.61,1403.31 3325.13,1406.04 3333.01,1407.51C3338.79,1400.09 3343.86,1392.06 3348.22,1383.43C3349.27,1381.33 3350.29,1379.2 3351.26,1377.04C3353.46,1376.78 3356.07,1341.82 3357.33,1317.97C3356.07,1324.75 3354.58,1331.19 3352.91,1337.17ZM3284.5,1341.99C3277.4,1357.39 3263.88,1376.53 3243.94,1399.4C3242.49,1406.7 3241.83,1413.96 3242.29,1421.15C3247.05,1418.71 3252.6,1415.89 3258.94,1412.68C3262.02,1394.89 3273.62,1369.07 3284.5,1341.99ZM3290.69,1431.16L3275.86,1432.62C3248.86,1445.27 3225.91,1454.27 3207.02,1459.63C3207.25,1460.47 3207.53,1461.28 3207.88,1462.06C3216.32,1472.52 3270.78,1433.84 3290.69,1431.16ZM3261.87,1490.56L3269.33,1480.48C3267.92,1479.52 3267.37,1477.22 3267.22,1474.09L3280.36,1460.33L3301.51,1450.81C3285.69,1454.21 3278.51,1455.83 3279.98,1455.68L3255.61,1479.7C3257.79,1483.43 3260.31,1487.04 3262.02,1489.28C3261.93,1489.69 3261.88,1490.12 3261.87,1490.56ZM3289.73,1474.8C3275.85,1486.1 3268.78,1495.63 3268.52,1503.41C3271.23,1506.24 3274.23,1508.38 3276.37,1508.85L3284.42,1497.3L3283.33,1498.74C3282.39,1497.04 3280.77,1495.02 3280.69,1491.55L3295.6,1476.95L3307.08,1474.48L3289.73,1474.8ZM3384.53,873.319C3480.23,894.471 3535.05,958.618 3548.99,1065.76L3553.49,1035.01C3568.31,1060.11 3581.78,1086.05 3613.98,1176.52C3590.81,1098.94 3570.58,1048.34 3553.28,1024.73C3541.82,962.702 3513.45,919.563 3468.16,895.312C3458.35,890.055 3447.74,885.685 3436.33,882.203C3417.85,875.661 3401.8,869.253 3388.18,862.982L3384.53,873.319ZM3395.65,1022.64C3390.26,1016.42 3376.1,996.252 3353.17,962.128C3361.8,998.578 3375,1030.1 3392.77,1056.7C3414.97,1025.52 3415.36,1025.58 3415.63,1000.16C3412.64,1007.83 3405.98,1015.33 3395.65,1022.64ZM3455,1036.03C3453.63,1083.94 3476.08,1119.94 3506.73,1151.84L3497.82,1109.35C3508.33,1137.6 3516.78,1168.28 3534.14,1197.75L3538.75,1192.54C3525.5,1154.66 3505.9,1114.15 3503.65,1076.27L3491.65,1102.89C3481.91,1084.55 3481.38,1068.98 3482.65,1055.64L3513.45,1059.24L3455,1036.03Z" style="fill:rgb(179,179,179);"/>
        </g>
        <g transform="matrix(1,0,0,1,-2919.96,-483.406)">
            <path d="M3213.47,1030.44C3196.65,1008.84 3175.73,993.849 3150.73,985.46C3149.38,988.422 3148.11,991.4 3146.88,994.416C3154.16,1009.3 3164.7,1020.57 3178.52,1028.24C3189.63,1031.14 3201.29,1031.88 3213.47,1030.44Z" style="fill:white;"/>
        </g>
        <g transform="matrix(1,0,0,1,-2919.96,-483.406)">
            <path d="M3341,741.779C3340.4,745.958 3341.51,748.758 3344.35,750.179C3332.83,746.913 3327.71,741.538 3328.98,734.054C3330.25,739.338 3334.26,741.913 3341,741.779Z" style="fill:rgb(4,29,48);"/>
        </g>
    </g>
</svg>
